<?xml version="1.0" encoding="UTF-8" standalone="no"?>
<!-- Created with Inkscape (http://www.inkscape.org/) -->

<svg
   width="145.61542mm"
   height="158.97488mm"
   viewBox="0 0 145.61542 158.97488"
   version="1.1"
   id="svg1"
   xml:space="preserve"
   xmlns:inkscape="http://www.inkscape.org/namespaces/inkscape"
   xmlns:sodipodi="http://sodipodi.sourceforge.net/DTD/sodipodi-0.dtd"
   xmlns="http://www.w3.org/2000/svg"
   xmlns:svg="http://www.w3.org/2000/svg"><sodipodi:namedview
     id="namedview1"
     pagecolor="#505050"
     bordercolor="#eeeeee"
     borderopacity="1"
     inkscape:showpageshadow="0"
     inkscape:pageopacity="0"
     inkscape:pagecheckerboard="0"
     inkscape:deskcolor="#505050"
     inkscape:document-units="mm" /><defs
     id="defs1"><style
       id="style1">.b{fill:#fff;}.c{fill:#b1d8c2;}.d{fill:#56764e;}.e{fill:none;stroke:#56764e;stroke-linecap:round;stroke-miterlimit:10;stroke-width:6px;}</style></defs><g
     inkscape:label="Calque 1"
     inkscape:groupmode="layer"
     id="layer1"
     transform="translate(-32.090939,-69.012548)"><g
       id="g1"
       transform="matrix(0.26458333,0,0,0.26458333,30.503439,69.012553)"><path
         class="c"
         d="M 412.72,0 H 195.92 C 183.33,0 171.7,6.72 165.4,17.62 L 56.99,205.38 c -6.29,10.9 -6.29,24.34 0,35.24 l 108.4,187.76 c 6.29,10.9 17.93,17.62 30.52,17.62 h 216.81 c 12.59,0 24.22,-6.72 30.52,-17.62 l 108.4,-187.76 c 6.29,-10.9 6.29,-24.34 0,-35.24 L 443.24,17.62 C 436.95,6.72 425.31,0 412.72,0 Z"
         id="path1" /><rect
         class="b"
         x="6"
         y="87"
         width="400"
         height="272.29001"
         rx="19.77"
         ry="19.77"
         id="rect1" /><rect
         class="b"
         x="187.32001"
         y="312.57001"
         width="37.57"
         height="77.949997"
         rx="7"
         ry="7"
         id="rect2" /><rect
         class="b"
         x="193.25999"
         y="314.20001"
         width="25.690001"
         height="155.91"
         rx="7"
         ry="7"
         transform="rotate(90,206.105,392.155)"
         id="rect3" /><path
         class="e"
         d="M 212.46,312.82 C 228.56,256.94 393.44,158.9 393.44,158.9"
         id="path3" /><path
         class="d"
         d="m 419,146.8 c 0,0 -40.11,196.53 -176.32,117.74 C 252.29,111.45 365.2,169.84 419,146.8 Z"
         id="path4" /><g
         id="g11"><path
           class="d"
           d="m 106.21,576.07 v -87.25 h 54.55 v 10.31 h -42.95 v 23.91 h 40.02 v 10.31 h -40.02 v 32.4 h 42.95 v 10.31 h -54.55 z"
           id="path5" /><path
           class="d"
           d="m 203.01,543.2 h -33.05 v -10.61 h 33.05 z"
           id="path6" /><path
           class="d"
           d="m 218.59,586.56 c 0.74,0.31 1.84,0.73 3.28,1.26 1.44,0.53 3.09,1.03 4.92,1.49 2.03,0.51 3.91,0.92 5.62,1.23 1.72,0.31 3.59,0.47 5.62,0.47 3.4,0 6.28,-0.45 8.64,-1.35 2.36,-0.9 4.21,-2.15 5.54,-3.75 1.25,-1.6 2.13,-3.46 2.64,-5.57 0.51,-2.11 0.76,-4.51 0.76,-7.21 v -5.74 c -2.97,2.58 -5.88,4.48 -8.73,5.71 -2.85,1.23 -6.43,1.85 -10.72,1.85 -7.46,0 -13.4,-2.77 -17.81,-8.32 -4.41,-5.55 -6.62,-13.51 -6.62,-23.91 0,-5.43 0.76,-10.24 2.29,-14.44 1.52,-4.2 3.57,-7.76 6.15,-10.69 2.46,-2.81 5.37,-4.98 8.73,-6.5 3.36,-1.52 6.84,-2.29 10.43,-2.29 3.4,0 6.34,0.4 8.82,1.2 2.48,0.8 4.97,1.94 7.47,3.43 l 0.64,-2.81 h 10.37 v 58.01 c 0,11.09 -2.42,19.24 -7.27,24.43 -4.84,5.19 -12.25,7.79 -22.21,7.79 -3.2,0 -6.47,-0.25 -9.81,-0.76 -3.34,-0.51 -6.46,-1.19 -9.35,-2.05 v -11.48 h 0.59 z m 37.03,-28.24 V 522.4 c -2.73,-1.33 -5.26,-2.28 -7.59,-2.84 -2.32,-0.57 -4.64,-0.85 -6.94,-0.85 -5.59,0 -9.98,2.05 -13.18,6.15 -3.2,4.1 -4.8,9.98 -4.8,17.64 0,7.66 1.22,12.79 3.66,16.58 2.44,3.79 6.4,5.68 11.87,5.68 2.85,0 5.79,-0.57 8.82,-1.7 3.03,-1.13 5.75,-2.71 8.17,-4.75 z"
           id="path7" /><path
           class="d"
           d="m 317.26,522.46 h -0.59 c -0.82,-0.23 -1.69,-0.38 -2.61,-0.44 -0.92,-0.06 -2.02,-0.09 -3.31,-0.09 -2.97,0 -5.92,0.64 -8.85,1.93 -2.93,1.29 -5.7,3.2 -8.32,5.74 v 46.46 h -11.02 v -65.45 h 11.02 v 9.73 c 4.02,-3.55 7.53,-6.06 10.52,-7.53 2.99,-1.47 5.89,-2.2 8.7,-2.2 1.13,0 1.98,0.03 2.55,0.09 0.57,0.06 1.2,0.15 1.9,0.26 v 11.48 z"
           id="path8" /><path
           class="d"
           d="m 353.65,577.59 c -10.43,0 -18.53,-2.94 -24.29,-8.82 -5.76,-5.88 -8.64,-14.23 -8.64,-25.05 0,-10.82 2.79,-19.15 8.38,-25.46 5.59,-6.31 12.89,-9.46 21.91,-9.46 4.06,0 7.66,0.59 10.78,1.76 3.12,1.17 5.86,3.01 8.2,5.51 2.34,2.5 4.14,5.56 5.39,9.17 1.25,3.61 1.88,8.04 1.88,13.27 v 5.98 h -45.35 c 0,7.62 1.91,13.44 5.74,17.46 3.83,4.02 9.12,6.04 15.88,6.04 2.42,0 4.79,-0.27 7.12,-0.82 2.32,-0.55 4.42,-1.25 6.3,-2.11 1.99,-0.9 3.67,-1.77 5.04,-2.61 1.37,-0.84 2.5,-1.63 3.4,-2.37 h 0.64 v 12.01 c -1.29,0.51 -2.89,1.14 -4.8,1.9 -1.91,0.76 -3.63,1.36 -5.16,1.79 -2.15,0.59 -4.09,1.03 -5.83,1.35 -1.74,0.31 -3.94,0.47 -6.59,0.47 z m 12.89,-41.54 c -0.08,-2.97 -0.43,-5.53 -1.05,-7.68 -0.62,-2.15 -1.52,-3.96 -2.7,-5.45 -1.29,-1.64 -2.94,-2.89 -4.95,-3.75 -2.01,-0.86 -4.5,-1.29 -7.47,-1.29 -2.97,0 -5.42,0.44 -7.47,1.32 -2.05,0.88 -3.92,2.16 -5.6,3.84 -1.64,1.72 -2.89,3.62 -3.75,5.71 -0.86,2.09 -1.41,4.52 -1.64,7.29 h 34.63 z"
           id="path9" /><path
           class="d"
           d="m 416.81,577.59 c -10.43,0 -18.53,-2.94 -24.29,-8.82 -5.76,-5.88 -8.64,-14.23 -8.64,-25.05 0,-10.82 2.79,-19.15 8.38,-25.46 5.59,-6.31 12.89,-9.46 21.91,-9.46 4.06,0 7.66,0.59 10.78,1.76 3.12,1.17 5.86,3.01 8.2,5.51 2.34,2.5 4.14,5.56 5.39,9.17 1.25,3.61 1.88,8.04 1.88,13.27 v 5.98 h -45.35 c 0,7.62 1.91,13.44 5.74,17.46 3.83,4.02 9.12,6.04 15.88,6.04 2.42,0 4.79,-0.27 7.12,-0.82 2.32,-0.55 4.42,-1.25 6.3,-2.11 1.99,-0.9 3.67,-1.77 5.04,-2.61 1.37,-0.84 2.5,-1.63 3.4,-2.37 h 0.64 v 12.01 c -1.29,0.51 -2.89,1.14 -4.8,1.9 -1.91,0.76 -3.63,1.36 -5.16,1.79 -2.15,0.59 -4.09,1.03 -5.83,1.35 -1.74,0.31 -3.94,0.47 -6.59,0.47 z m 12.89,-41.54 c -0.08,-2.97 -0.43,-5.53 -1.05,-7.68 -0.62,-2.15 -1.52,-3.96 -2.7,-5.45 -1.29,-1.64 -2.94,-2.89 -4.95,-3.75 -2.01,-0.86 -4.5,-1.29 -7.47,-1.29 -2.97,0 -5.42,0.44 -7.47,1.32 -2.05,0.88 -3.92,2.16 -5.6,3.84 -1.64,1.72 -2.89,3.62 -3.75,5.71 -0.86,2.09 -1.41,4.52 -1.64,7.29 h 34.63 z"
           id="path10" /><path
           class="d"
           d="M 503.01,576.07 H 491.99 V 538.8 c 0,-3.01 -0.15,-5.81 -0.44,-8.41 -0.29,-2.6 -0.85,-4.68 -1.67,-6.24 -0.9,-1.64 -2.15,-2.86 -3.75,-3.66 -1.6,-0.8 -3.79,-1.2 -6.56,-1.2 -2.77,0 -5.56,0.73 -8.47,2.2 -2.91,1.46 -5.75,3.37 -8.53,5.71 v 48.87 h -11.02 v -65.45 h 11.02 v 7.27 c 3.28,-2.93 6.52,-5.18 9.73,-6.74 3.2,-1.56 6.58,-2.34 10.14,-2.34 6.45,0 11.48,2.12 15.12,6.36 3.63,4.24 5.45,10.38 5.45,18.43 v 42.48 z"
           id="path11" /></g></g></g></svg>
